<svg xmlns="http://www.w3.org/2000/svg" viewBox="0 0 44 44"><path d="M22 0C9.8 0 0 9.8 0 22s9.8 22 22 22 22-9.8 22-22S34.2 0 22 0zm-1.3 19.3l-1.4 1.4c-.4.4-1 .4-1.4 0l-4-4c-.3-.3-.9-.1-.9.4v1c0 .6-.4 1-1 1h-2c-.6 0-1-.4-1-1v-8c0-.6.4-1 1-1h8c.6 0 1 .4 1 1v2c0 .6-.4 1-1 1h-1c-.4 0-.7.5-.4.9l4 4c.5.3.5.9.1 1.3zM35 34c0 .6-.4 1-1 1h-8c-.6 0-1-.4-1-1v-2c0-.6.4-1 1-1h1c.4 0 .7-.5.4-.9l-4-4c-.4-.4-.4-1 0-1.4l1.4-1.4c.4-.4 1-.4 1.4 0l4 4c.3.3.9.1.9-.4v-1c0-.6.4-1 1-1h2c.6 0 1 .4 1 1V34H35z" fill="#367fa9"/></svg>